# xmcd CD database file
# Generated: Fri May 17 17:22:28 2002 by KSCD
# 
# Track frame offsets:
#       150
#       15567
#       36022
#
# Disc length: 715 seconds
#
# Revision: 6
# Processed by: cddbd v1.4PL0 Copyright (c) Steve Scherf et al.
# Submitted via: Kscd 1.3.2
#
DISCID=1702c903
DTITLE=Suzi Quatro - What Goes Around
DYEAR=1900
DGENRE=Blues
TTITLE0=What Goes Around (Radio Edit)
TTITLE1=What Goes Around (Album Version)
TTITLE2=Four Letter Words
EXTD=ID3G:   0
EXTT0=
EXTT1=
EXTT2=
PLAYORDER=
